<?xml version="1.0" encoding="UTF-8" standalone="no"?>
<svg
   preserveAspectRatio="none"
   data-bbox="6.972 34.72 184.187 121.52"
   data-name="Layer 1"
   viewBox="6.972 34.72 184.187 121.52"
   role="presentation"
   aria-hidden="true"
   version="1.1"
   id="svg68"
   sodipodi:docname="wreath.svg"
   inkscape:version="1.2 (1:1.2+202206011326+fc4e4096c5)"
   xmlns:inkscape="http://www.inkscape.org/namespaces/inkscape"
   xmlns:sodipodi="http://sodipodi.sourceforge.net/DTD/sodipodi-0.dtd"
   xmlns="http://www.w3.org/2000/svg"
   fill="#0096c7"
   xmlns:svg="http://www.w3.org/2000/svg">
  <defs
     id="defs72" />
  <sodipodi:namedview
     id="namedview70"
     pagecolor="#ffffff"
     bordercolor="#666666"
     borderopacity="1.0"
     inkscape:showpageshadow="2"
     inkscape:pageopacity="0.0"
     inkscape:pagecheckerboard="0"
     inkscape:deskcolor="#d1d1d1"
     showgrid="false"
     inkscape:zoom="1.9420672"
     inkscape:cx="92.427286"
     inkscape:cy="60.759998"
     inkscape:current-layer="svg68" />
  <g
     id="g974">
    <path
       d="m 60.31,145.56 c 4.36,-7 -9.39,-13.08 -9.39,-13.08 -0.34,15.09 9.39,13.08 9.39,13.08 z"
       id="path2" />
    <path
       d="m 40.82,150.28 c 12.24,8.84 16.11,-0.31 16.11,-0.31 -3.33,-7.59 -16.11,0.31 -16.11,0.31 z"
       id="path4" />
    <path
       d="m 44.13,137.15 c 6.5,-5.14 -4.37,-15.5 -4.37,-15.5 -5.46,14.08 4.37,15.5 4.37,15.5 z"
       id="path6" />
    <path
       d="m 25.37,138.19 c 10.25,11.09 15.85,2.88 15.85,2.88 -1.77,-8.07 -15.85,-2.88 -15.85,-2.88 z"
       id="path8" />
    <path
       d="m 32.59,127.61 c 7.89,-2.52 1.38,-16 1.38,-16 -10.08,11.2 -1.38,16 -1.38,16 z"
       id="path10" />
    <path
       d="m 15.2,122.06 c 5.68,14 13.81,8.28 13.81,8.28 1.21,-8.19 -13.81,-8.28 -13.81,-8.28 z"
       id="path12" />
    <path
       d="m 24.13,115.86 c 8.26,-0.7 4.9,-15.34 4.9,-15.34 -12.32,8.73 -4.9,15.34 -4.9,15.34 z"
       id="path14" />
    <path
       d="m 21.55,100.7 c 8.58,0.59 7.69,-14.41 7.69,-14.41 C 15.1,93 21.55,100.7 21.55,100.7 Z"
       id="path16" />
    <path
       d="m 14.56,101.37 c 5.9,-6 -6.88,-14.72 -6.88,-14.72 -3.46,14.71 6.88,14.72 6.88,14.72 z"
       id="path18" />
    <path
       d="M 32.39,71.67 C 17,74.46 21.2,83.57 21.2,83.57 c 8.14,2.81 11.19,-11.9 11.19,-11.9 z"
       id="path20" />
    <path
       d="m 15.95,83.88 c 6.14,-5.77 -6.29,-15 -6.29,-15 -4.04,14.58 6.29,15 6.29,15 z"
       id="path22" />
    <path
       d="M 24.22,69.74 C 31.61,74.15 37.6,60.37 37.6,60.37 21.94,60 24.22,69.74 24.22,69.74 Z"
       id="path24" />
    <path
       d="m 19.28,67.79 c 7.18,-4.4 -3.1,-16 -3.1,-16 -6.92,13.48 3.1,16 3.1,16 z"
       id="path26" />
    <path
       d="M 45.16,50.32 C 29.85,47 30.26,57 30.26,57 c 6.43,5.73 14.9,-6.68 14.9,-6.68 z"
       id="path28" />
    <path
       d="m 25.75,54.46 c 7.88,-3 -0.05,-16.25 -0.05,-16.25 -9.32,11.9 0.05,16.25 0.05,16.25 z"
       id="path30" />
    <path
       d="M 20.66,108.54 C 12.14,80.77 30.36,52.26 34.8,45.89 43.92,47.51 45.68,34.72 45.68,34.72 32.73,35.59 33.13,43 33.51,45.08 a 103.65,103.65 0 0 0 -10.36,19 C 18.5,75.3 14.05,92.18 19.2,109 c 0.32,1 0.68,2.06 1.06,3.08 -2.28,-4.77 -11.52,-6.94 -11.52,-6.94 2.43,14.9 11.63,11.14 11.63,11.14 a 5.21,5.21 0 0 0 0.24,-3.3 c 7.54,18.89 26.38,33.43 56.08,43.26 l 0.48,-1.44 C 45.91,144.43 26.9,128.88 20.66,108.54 Z"
       id="path32" />
    <path
       d="m 147.21,132.48 c 0,0 -13.75,6 -9.39,13.08 -0.01,0 9.72,2.01 9.39,-13.08 z"
       id="path34" />
    <path
       d="m 141.2,150 c 0,0 3.86,9.15 16.11,0.31 -0.01,-0.03 -12.78,-7.93 -16.11,-0.31 z"
       id="path36" />
    <path
       d="m 154,137.15 c 0,0 9.83,-1.42 4.37,-15.5 0,0 -10.87,10.35 -4.37,15.5 z"
       id="path38" />
    <path
       d="m 156.92,141.07 c 0,0 5.6,8.21 15.85,-2.88 -0.01,0 -14.1,-5.19 -15.85,2.88 z"
       id="path40" />
    <path
       d="m 165.54,127.61 c 0,0 8.7,-4.8 -1.38,-16 0,-0.05 -6.51,13.48 1.38,16 z"
       id="path42" />
    <path
       d="m 169.12,130.35 c 0,0 8.13,5.71 13.81,-8.28 0,-0.01 -15.02,0.08 -13.81,8.28 z"
       id="path44" />
    <path
       d="m 174,115.86 c 0,0 7.42,-6.61 -4.9,-15.34 0,0 -3.36,14.64 4.9,15.34 z"
       id="path46" />
    <path
       d="m 177.86,112.05 c 0.38,-1 0.74,-2 1.06,-3.08 5.15,-16.79 0.7,-33.67 -3.94,-44.87 a 103.65,103.65 0 0 0 -10.36,-19 c 0.37,-2.08 0.77,-9.48 -12.17,-10.36 0,0 1.77,12.8 10.88,11.17 4.44,6.37 22.66,34.88 14.14,62.65 -6.24,20.34 -25.25,35.89 -56.51,46.23 l 0.48,1.44 c 29.7,-9.83 48.54,-24.37 56.08,-43.26 a 5.21,5.21 0 0 0 0.24,3.3 c 0,0 9.2,3.76 11.63,-11.14 0,-0.02 -9.25,2.15 -11.53,6.92 z"
       id="path48" />
    <path
       d="m 168.88,86.29 c 0,0 -0.89,15 7.69,14.41 0.01,0 6.43,-7.7 -7.69,-14.41 z"
       id="path50" />
    <path
       d="m 183.57,101.37 c 0,0 10.34,0 6.88,-14.72 0,0 -12.78,8.71 -6.88,14.72 z"
       id="path52" />
    <path
       d="m 165.73,71.67 c 0,0 3.05,14.71 11.19,11.9 0,0 4.22,-9.11 -11.19,-11.9 z"
       id="path54" />
    <path
       d="m 182.18,83.88 c 0,0 10.33,-0.42 6.29,-15 0,0.01 -12.47,9.23 -6.29,15 z"
       id="path56" />
    <path
       d="m 160.53,60.37 c 0,0 6,13.78 13.38,9.37 0,0 2.28,-9.74 -13.38,-9.37 z"
       id="path58" />
    <path
       d="m 178.84,67.79 c 0,0 10,-2.52 3.1,-16 0,0.05 -10.28,11.6 -3.1,16 z"
       id="path60" />
    <path
       d="m 153,50.32 c 0,0 8.47,12.41 14.9,6.69 C 167.87,57 168.27,47 153,50.32 Z"
       id="path62" />
    <path
       d="m 172.37,54.46 c 0,0 9.37,-4.35 0.05,-16.25 0.01,0 -7.93,13.28 -0.05,16.25 z"
       id="path64" />
  </g>
</svg>
